<svg width="62" height="62" viewBox="0 0 62 62" fill="none" xmlns="http://www.w3.org/2000/svg">
<path d="M43 21.9696V56.0495C43 60.3994 39.88 62.2294 36.07 60.1294L24.28 53.5595C23.02 52.8695 20.98 52.8695 19.72 53.5595L7.93 60.1294C4.12 62.2294 1 60.3994 1 56.0495V21.9696C1 16.8396 5.19997 12.6396 10.33 12.6396H33.67C38.8 12.6396 43 16.8396 43 21.9696Z" stroke="white" stroke-width="1.5" stroke-linecap="round" stroke-linejoin="round"/>
<path d="M61 10.3299V44.4098C61 48.7597 57.88 50.5897 54.07 48.4897L43 42.3098V21.9699C43 16.8399 38.8 12.6399 33.67 12.6399H19V10.3299C19 5.19995 23.2 1 28.33 1H51.67C56.8 1 61 5.19995 61 10.3299Z" stroke="white" stroke-width="1.5" stroke-linecap="round" stroke-linejoin="round"/>
<path d="M15.9995 31H27.9995" stroke="white" stroke-width="1.5" stroke-linecap="round" stroke-linejoin="round"/>
<path d="M22.0005 36.9999V25" stroke="white" stroke-width="1.5" stroke-linecap="round" stroke-linejoin="round"/>
</svg>
