<svg width="24" height="24" viewBox="0 0 24 24" fill="none" xmlns="http://www.w3.org/2000/svg">
<mask id="path-1-inside-1_16_10" fill="white">
<path d="M12 0C5.376 0 0 5.376 0 12C0 18.624 5.376 24 12 24C18.624 24 24 18.624 24 12C24 5.376 18.624 0 12 0ZM12 21.6C6.708 21.6 2.4 17.292 2.4 12C2.4 6.708 6.708 2.4 12 2.4C17.292 2.4 21.6 6.708 21.6 12C21.6 17.292 17.292 21.6 12 21.6ZM5.4 18.6L14.412 14.412L18.6 5.4L9.588 9.588L5.4 18.6ZM12 10.68C12.732 10.68 13.32 11.268 13.32 12C13.32 12.732 12.732 13.32 12 13.32C11.268 13.32 10.68 12.732 10.68 12C10.68 11.268 11.268 10.68 12 10.68Z"/>
</mask>
<path d="M12 0C5.376 0 0 5.376 0 12C0 18.624 5.376 24 12 24C18.624 24 24 18.624 24 12C24 5.376 18.624 0 12 0ZM12 21.6C6.708 21.6 2.4 17.292 2.4 12C2.4 6.708 6.708 2.4 12 2.4C17.292 2.4 21.6 6.708 21.6 12C21.6 17.292 17.292 21.6 12 21.6ZM5.4 18.6L14.412 14.412L18.6 5.4L9.588 9.588L5.4 18.6ZM12 10.68C12.732 10.68 13.32 11.268 13.32 12C13.32 12.732 12.732 13.32 12 13.32C11.268 13.32 10.68 12.732 10.68 12C10.68 11.268 11.268 10.68 12 10.68Z" fill="white"/>
<path d="M5.4 18.6L-0.948024 15.65L-9.0202 33.0202L8.35001 24.948L5.4 18.6ZM14.412 14.412L17.362 20.76L19.6819 19.6819L20.76 17.362L14.412 14.412ZM18.6 5.4L24.948 8.35001L33.0202 -9.0202L15.65 -0.948024L18.6 5.4ZM9.588 9.588L6.63799 3.23998L4.31807 4.31807L3.23998 6.63799L9.588 9.588ZM12 -7C1.51001 -7 -7 1.51001 -7 12H7C7 9.24199 9.24199 7 12 7V-7ZM-7 12C-7 22.49 1.51001 31 12 31V17C9.24199 17 7 14.758 7 12H-7ZM12 31C22.49 31 31 22.49 31 12H17C17 14.758 14.758 17 12 17V31ZM31 12C31 1.51001 22.49 -7 12 -7V7C14.758 7 17 9.24199 17 12H31ZM12 14.6C10.574 14.6 9.4 13.426 9.4 12H-4.6C-4.6 21.158 2.84201 28.6 12 28.6V14.6ZM9.4 12C9.4 10.574 10.574 9.4 12 9.4V-4.6C2.84201 -4.6 -4.6 2.84201 -4.6 12H9.4ZM12 9.4C13.426 9.4 14.6 10.574 14.6 12H28.6C28.6 2.84201 21.158 -4.6 12 -4.6V9.4ZM14.6 12C14.6 13.426 13.426 14.6 12 14.6V28.6C21.158 28.6 28.6 21.158 28.6 12H14.6ZM8.35001 24.948L17.362 20.76L11.462 8.06398L2.44999 12.252L8.35001 24.948ZM20.76 17.362L24.948 8.35001L12.252 2.44999L8.06398 11.462L20.76 17.362ZM15.65 -0.948024L6.63799 3.23998L12.538 15.936L21.55 11.748L15.65 -0.948024ZM3.23998 6.63799L-0.948024 15.65L11.748 21.55L15.936 12.538L3.23998 6.63799ZM12 17.68C8.86601 17.68 6.32 15.134 6.32 12H20.32C20.32 7.402 16.598 3.68 12 3.68V17.68ZM6.32 12C6.32 8.86601 8.86601 6.32 12 6.32V20.32C16.598 20.32 20.32 16.598 20.32 12H6.32ZM12 6.32C15.134 6.32 17.68 8.86601 17.68 12H3.68C3.68 16.598 7.402 20.32 12 20.32V6.32ZM17.68 12C17.68 15.134 15.134 17.68 12 17.68V3.68C7.40201 3.68 3.68 7.40201 3.68 12H17.68Z" fill="white" mask="url(#path-1-inside-1_16_10)"/>
</svg>
