<svg width="24" height="24" viewBox="0 0 24 24" fill="none" xmlns="http://www.w3.org/2000/svg">
<path d="M11.9999 0.000125116C9.62658 0.000125116 7.30651 0.703909 5.33313 2.02248C3.35975 3.34105 1.82169 5.21518 0.913446 7.40788C0.00519943 9.60059 -0.232439 12.0134 0.230581 14.3411C0.693601 16.6689 1.83648 18.8071 3.51471 20.4853C5.19293 22.1635 7.33111 23.3064 9.65887 23.7694C11.9866 24.2324 14.3994 23.9948 16.5921 23.0866C18.7848 22.1783 20.659 20.6402 21.9775 18.6669C23.2961 16.6935 23.9999 14.3734 23.9999 12.0001C24.0071 10.4222 23.7016 8.85851 23.1011 7.39935C22.5006 5.94019 21.617 4.61446 20.5013 3.49872C19.3855 2.38299 18.0598 1.49935 16.6006 0.898857C15.1415 0.298361 13.5778 -0.00709639 11.9999 0.000125116ZM17.8363 6.92736L14.1817 14.1819L6.92724 17.8364C6.82078 17.8734 6.70605 17.8796 6.5962 17.8544C6.48635 17.8292 6.38583 17.7736 6.30613 17.6939C6.22644 17.6142 6.17081 17.5136 6.1456 17.4038C6.12039 17.294 6.12663 17.1792 6.16361 17.0728L9.81813 9.81825L17.0726 6.16373C17.1791 6.12675 17.2938 6.12051 17.4037 6.14572C17.5135 6.17093 17.6141 6.22656 17.6937 6.30626C17.7734 6.38595 17.8291 6.48648 17.8543 6.59632C17.8795 6.70617 17.8732 6.8209 17.8363 6.92736ZM11.9999 10.9092C11.7842 10.9092 11.5733 10.9731 11.3939 11.093C11.2145 11.2129 11.0746 11.3833 10.9921 11.5826C10.9095 11.7819 10.8879 12.0013 10.93 12.2129C10.9721 12.4245 11.076 12.6189 11.2286 12.7714C11.3811 12.924 11.5755 13.0279 11.7871 13.07C11.9987 13.1121 12.2181 13.0905 12.4174 13.0079C12.6167 12.9254 12.7871 12.7855 12.907 12.6061C13.0269 12.4267 13.0908 12.2158 13.0908 12.0001C13.0908 11.7107 12.9759 11.4333 12.7713 11.2287C12.5667 11.0241 12.2893 10.9092 11.9999 10.9092Z" fill="white"/>
</svg>
