<svg width="18" height="18" viewBox="0 0 18 18" fill="none" xmlns="http://www.w3.org/2000/svg">
<path fill-rule="evenodd" clip-rule="evenodd" d="M0.373157 0.65614C-0.0173677 1.04666 -0.0173672 1.67983 0.373157 2.07035L6.5957 8.29289C6.98622 8.68342 6.98622 9.31658 6.5957 9.70711L0.373158 15.9296C-0.0173662 16.3202 -0.0173672 16.9533 0.373157 17.3439L0.656 17.6267C1.04652 18.0172 1.67969 18.0172 2.07021 17.6267L8.29275 11.4042C8.68328 11.0136 9.31644 11.0136 9.70697 11.4042L15.9295 17.6267C16.32 18.0172 16.9532 18.0172 17.3437 17.6267L17.6266 17.3439C18.0171 16.9533 18.0171 16.3202 17.6266 15.9296L11.404 9.70711C11.0135 9.31658 11.0135 8.68342 11.404 8.29289L17.6266 2.07035C18.0171 1.67983 18.0171 1.04666 17.6266 0.65614L17.3437 0.373297C16.9532 -0.0172277 16.32 -0.0172272 15.9295 0.373297L9.70697 6.59584C9.31644 6.98636 8.68328 6.98636 8.29275 6.59584L2.07021 0.373298C1.67969 -0.0172263 1.04652 -0.0172272 0.656 0.373297L0.373157 0.65614Z" fill="#CDDC39"/>
</svg>
