<svg width="26" height="26" viewBox="0 0 26 26" fill="none" xmlns="http://www.w3.org/2000/svg">
<path d="M24.6614 9.1466L13.3527 1.16614C13.0343 0.941904 12.5881 0.944758 12.2738 1.17407L1.32681 9.15421C1.12077 9.30455 1 9.53322 1 9.77458V24.2055C1 24.6448 1.39016 25 1.87185 25H8.37921C8.8602 25 9.25105 24.6445 9.25105 24.2055V19.1181C9.25105 17.0479 10.9293 15.3697 12.9995 15.3697V15.3697C15.0697 15.3697 16.7479 17.0479 16.7479 19.1181V24.2055C16.7479 24.6448 17.1388 25 17.6197 25H24.1281C24.6091 25 25 24.6445 25 24.2055V9.77458C25.0003 9.52878 24.875 9.29693 24.6614 9.1466Z" stroke="white" stroke-width="2"/>
</svg>
