<svg width="24" height="24" viewBox="0 0 24 24" fill="none" xmlns="http://www.w3.org/2000/svg">
<path d="M23.6614 8.1466L12.3527 0.166138C12.0343 -0.0580962 11.5881 -0.0552415 11.2738 0.174067L0.326812 8.15421C0.120771 8.30455 0 8.53322 0 8.77458V23.2055C0 23.6448 0.390156 24 0.871847 24H7.37921C7.8602 24 8.25105 23.6445 8.25105 23.2055V18.1181C8.25105 16.0479 9.92928 14.3697 11.9995 14.3697V14.3697C14.0697 14.3697 15.7479 16.0479 15.7479 18.1181V23.2055C15.7479 23.6448 16.1388 24 16.6197 24H23.1281C23.6091 24 24 23.6445 24 23.2055V8.77458C24.0003 8.52878 23.875 8.29693 23.6614 8.1466Z" fill="white"/>
</svg>
