<svg width="32" height="32" viewBox="0 0 32 32" fill="none" xmlns="http://www.w3.org/2000/svg">
<path d="M29.5006 19.041C28.6725 19.041 28.0012 19.7103 28.0012 20.5359C28.0012 21.3615 28.6725 22.0308 29.5006 22.0308C30.3287 22.0308 31 21.3615 31 20.5359C31 19.7103 30.3287 19.041 29.5006 19.041Z" fill="white" stroke="white" stroke-width="0.672014"/>
<path d="M25.0475 19.041C24.2194 19.041 23.548 19.7103 23.548 20.5359C23.548 21.3615 24.2194 22.0308 25.0475 22.0308C25.8756 22.0308 26.5469 21.3615 26.5469 20.5359C26.5469 19.7103 25.8756 19.041 25.0475 19.041Z" fill="white" stroke="white" stroke-width="0.672014"/>
<path d="M20.504 19.041C19.6759 19.041 19.0046 19.7103 19.0046 20.5359C19.0046 21.3615 19.6759 22.0308 20.504 22.0308C21.3321 22.0308 22.0034 21.3615 22.0034 20.5359C22.0034 19.7103 21.3321 19.041 20.504 19.041Z" fill="white" stroke="white" stroke-width="0.672014"/>
<path d="M16.0509 23.4799C15.2228 23.4799 14.5515 24.1492 14.5515 24.9748C14.5515 25.8004 15.2228 26.4697 16.0509 26.4697C16.879 26.4697 17.5503 25.8004 17.5503 24.9748C17.5503 24.1492 16.879 23.4799 16.0509 23.4799Z" fill="white" stroke="white" stroke-width="0.672014"/>
<path d="M16.0509 19.041C15.2228 19.041 14.5515 19.7103 14.5515 20.5359C14.5515 21.3615 15.2228 22.0308 16.0509 22.0308C16.879 22.0308 17.5503 21.3615 17.5503 20.5359C17.5503 19.7103 16.879 19.041 16.0509 19.041Z" fill="white" stroke="white" stroke-width="0.672014"/>
<path d="M16.051 28.0102C15.2229 28.0102 14.5516 28.6795 14.5516 29.5051C14.5516 30.3307 15.2229 31 16.051 31C16.8791 31 17.5504 30.3307 17.5504 29.5051C17.5504 28.6795 16.8791 28.0102 16.051 28.0102Z" fill="white" stroke="white" stroke-width="0.672014"/>
<path d="M11.5982 23.4799C10.7701 23.4799 10.0988 24.1492 10.0988 24.9748C10.0988 25.8004 10.7701 26.4697 11.5982 26.4697C12.4263 26.4697 13.0977 25.8004 13.0977 24.9748C13.0977 24.1492 12.4263 23.4799 11.5982 23.4799Z" fill="white" stroke="white" stroke-width="0.672014"/>
<path d="M11.5982 19.041C10.7701 19.041 10.0988 19.7103 10.0988 20.5359C10.0988 21.3615 10.7701 22.0308 11.5982 22.0308C12.4263 22.0308 13.0977 21.3615 13.0977 20.5359C13.0977 19.7103 12.4263 19.041 11.5982 19.041Z" fill="white" stroke="white" stroke-width="0.672014"/>
<path d="M29.5006 14.6015C28.6725 14.6015 28.0012 15.2708 28.0012 16.0964C28.0012 16.922 28.6725 17.5913 29.5006 17.5913C30.3287 17.5913 31 16.922 31 16.0964C31 15.2708 30.3287 14.6015 29.5006 14.6015Z" fill="white" stroke="white" stroke-width="0.672014"/>
<path d="M25.0475 14.6015C24.2194 14.6015 23.548 15.2708 23.548 16.0964C23.548 16.922 24.2194 17.5913 25.0475 17.5913C25.8756 17.5913 26.5469 16.922 26.5469 16.0964C26.5469 15.2708 25.8756 14.6015 25.0475 14.6015Z" fill="white" stroke="white" stroke-width="0.672014"/>
<path d="M20.504 14.6015C19.6759 14.6015 19.0046 15.2708 19.0046 16.0964C19.0046 16.922 19.6759 17.5913 20.504 17.5913C21.3321 17.5913 22.0034 16.922 22.0034 16.0964C22.0034 15.2708 21.3321 14.6015 20.504 14.6015Z" fill="white" stroke="white" stroke-width="0.672014"/>
<path d="M16.0509 14.6015C15.2228 14.6015 14.5515 15.2708 14.5515 16.0964C14.5515 16.922 15.2228 17.5913 16.0509 17.5913C16.879 17.5913 17.5503 16.922 17.5503 16.0964C17.5503 15.2708 16.879 14.6015 16.0509 14.6015Z" fill="white" stroke="white" stroke-width="0.672014"/>
<path d="M11.5982 14.6015C10.7701 14.6015 10.0988 15.2708 10.0988 16.0964C10.0988 16.922 10.7701 17.5913 11.5982 17.5913C12.4263 17.5913 13.0977 16.922 13.0977 16.0964C13.0977 15.2708 12.4263 14.6015 11.5982 14.6015Z" fill="white" stroke="white" stroke-width="0.672014"/>
<path d="M29.5005 10.071C28.6723 10.071 28.001 10.7404 28.001 11.566C28.001 12.3917 28.6723 13.061 29.5005 13.061C30.3286 13.061 31 12.3917 31 11.566C31 10.7404 30.3286 10.071 29.5005 10.071Z" fill="white" stroke="white" stroke-width="0.672014"/>
<path d="M25.0478 10.071C24.2197 10.071 23.5483 10.7404 23.5483 11.566C23.5483 12.3917 24.2197 13.061 25.0478 13.061C25.876 13.061 26.5474 12.3917 26.5474 11.566C26.5474 10.7404 25.876 10.071 25.0478 10.071Z" fill="white" stroke="white" stroke-width="0.672014"/>
<path d="M20.5039 10.071C19.6757 10.071 19.0044 10.7404 19.0044 11.566C19.0044 12.3917 19.6757 13.061 20.5039 13.061C21.3321 13.061 22.0034 12.3917 22.0034 11.566C22.0034 10.7404 21.3321 10.071 20.5039 10.071Z" fill="white" stroke="white" stroke-width="0.672014"/>
<path d="M16.0508 10.071C15.2226 10.071 14.5513 10.7404 14.5513 11.566C14.5513 12.3917 15.2226 13.061 16.0508 13.061C16.8789 13.061 17.5503 12.3917 17.5503 11.566C17.5503 10.7404 16.8789 10.071 16.0508 10.071Z" fill="white" stroke="white" stroke-width="0.672014"/>
<path d="M11.5981 10.071C10.77 10.071 10.0986 10.7404 10.0986 11.566C10.0986 12.3917 10.77 13.061 11.5981 13.061C12.4263 13.061 13.0977 12.3917 13.0977 11.566C13.0977 10.7404 12.4263 10.071 11.5981 10.071Z" fill="white" stroke="white" stroke-width="0.672014"/>
<path d="M16.0509 5.62642C15.2228 5.62642 14.5515 6.29571 14.5515 7.12132C14.5515 7.94693 15.2228 8.61621 16.0509 8.61621C16.879 8.61621 17.5503 7.94693 17.5503 7.12132C17.5503 6.29571 16.879 5.62642 16.0509 5.62642Z" fill="white" stroke="white" stroke-width="0.672014"/>
<path d="M11.5982 5.62642C10.7701 5.62642 10.0988 6.29571 10.0988 7.12132C10.0988 7.94693 10.7701 8.61621 11.5982 8.61621C12.4263 8.61621 13.0977 7.94693 13.0977 7.12132C13.0977 6.29571 12.4263 5.62642 11.5982 5.62642Z" fill="white" stroke="white" stroke-width="0.672014"/>
<path d="M6.95762 19.041C6.12951 19.041 5.45821 19.7103 5.45821 20.5359C5.45821 21.3615 6.12951 22.0308 6.95762 22.0308C7.78572 22.0308 8.45703 21.3615 8.45703 20.5359C8.45703 19.7103 7.78572 19.041 6.95762 19.041Z" fill="white" stroke="white" stroke-width="0.672014"/>
<path d="M6.95762 14.6015C6.12951 14.6015 5.45821 15.2708 5.45821 16.0964C5.45821 16.922 6.12951 17.5913 6.95762 17.5913C7.78572 17.5913 8.45703 16.922 8.45703 16.0964C8.45703 15.2708 7.78572 14.6015 6.95762 14.6015Z" fill="white" stroke="white" stroke-width="0.672014"/>
<path d="M6.958 10.071C6.12984 10.071 5.45849 10.7404 5.45849 11.566C5.45849 12.3917 6.12984 13.061 6.958 13.061C7.78616 13.061 8.45752 12.3917 8.45752 11.566C8.45752 10.7404 7.78616 10.071 6.958 10.071Z" fill="white" stroke="white" stroke-width="0.672014"/>
<path d="M16.0508 1.00024C15.2226 1.00024 14.5513 1.66957 14.5513 2.49524C14.5513 3.3209 15.2226 3.99023 16.0508 3.99023C16.8789 3.99023 17.5503 3.3209 17.5503 2.49524C17.5503 1.66957 16.8789 1.00024 16.0508 1.00024Z" fill="white" stroke="white" stroke-width="0.672014"/>
<path d="M2.49961 14.6015C1.6715 14.6015 1.0002 15.2708 1.0002 16.0964C1.0002 16.922 1.6715 17.5913 2.49961 17.5913C3.32771 17.5913 3.99902 16.922 3.99902 16.0964C3.99902 15.2708 3.32771 14.6015 2.49961 14.6015Z" fill="white" stroke="white" stroke-width="0.672014"/>
</svg>
