<svg width="24" height="24" viewBox="0 0 24 24" fill="none" xmlns="http://www.w3.org/2000/svg">
<path fill-rule="evenodd" clip-rule="evenodd" d="M12 9.4884C12.4624 9.4884 12.8372 9.86324 12.8372 10.3256C12.8372 10.9268 13.1893 11.5542 13.7676 12.0673C14.3604 12.5932 15.0079 12.8372 15.3488 12.8372C15.8112 12.8372 16.186 13.2121 16.186 13.6744C16.186 14.1368 15.8112 14.5116 15.3488 14.5116C14.5247 14.5116 13.5853 14.0801 12.8372 13.4732V17.5814C12.8372 18.9686 11.7127 20.093 10.3256 20.093C8.93846 20.093 7.81396 18.9686 7.81396 17.5814C7.81396 16.1943 8.93846 15.0698 10.3256 15.0698C10.6192 15.0698 10.9009 15.1201 11.1628 15.2127V10.3256C11.1628 9.86324 11.5376 9.4884 12 9.4884ZM11.1628 17.5814C11.1628 17.1191 10.788 16.7442 10.3256 16.7442C9.86323 16.7442 9.48838 17.1191 9.48838 17.5814C9.48838 18.0438 9.86323 18.4186 10.3256 18.4186C10.788 18.4186 11.1628 18.0438 11.1628 17.5814Z" fill="white"/>
<path fill-rule="evenodd" clip-rule="evenodd" d="M8.31554 8.11639e-06H15.6841C15.9296 -5.88604e-05 16.1177 -0.000114693 16.2822 0.0175337C17.7938 0.179763 18.9508 1.4211 19.021 2.92479C20.3503 3.32172 21.2973 4.55162 21.3145 5.96224C21.9854 6.16354 22.5641 6.48106 23.0377 6.99273C23.7656 7.77887 23.9911 8.74771 23.9997 9.8794C24.008 10.9674 23.8141 12.3424 23.5733 14.0498L23.0833 17.5255C22.8951 18.8606 22.7421 19.9452 22.5043 20.7952C22.2553 21.6844 21.8885 22.416 21.2093 22.9785C20.5354 23.5364 19.7359 23.777 18.7909 23.8904C17.8772 24 16.7278 24 15.2966 24H8.70347C7.2723 24 6.12279 24 5.20907 23.8904C4.2641 23.777 3.46461 23.5364 2.79073 22.9785C2.11146 22.416 1.74458 21.6844 1.49569 20.7952C1.25777 19.9452 1.10488 18.8606 0.916663 17.5255L0.426628 14.0498C0.185869 12.3424 -0.00800594 10.9674 0.000254519 9.8794C0.00883869 8.74771 0.234383 7.77887 0.962184 6.99273C1.43577 6.48118 2.01427 6.16369 2.68496 5.96238C2.70204 4.55162 3.6493 3.32159 4.97865 2.92473C5.04887 1.42106 6.20587 0.179763 7.71748 0.0175337C7.88197 -0.000114693 8.07013 -5.88604e-05 8.31554 8.11639e-06ZM4.39704 5.66829C5.43048 5.58138 6.69736 5.58139 8.22243 5.5814H15.7775C17.3023 5.58139 18.5691 5.58138 19.6024 5.66825C19.4493 4.98997 18.8434 4.46512 18.0968 4.46512H5.90273C5.15604 4.46512 4.55015 4.98998 4.39704 5.66829ZM16.1035 1.6824C16.7177 1.74831 17.2031 2.20613 17.3221 2.79071H6.67768C6.79659 2.20613 7.28197 1.74831 7.89616 1.6824C7.95898 1.67565 8.0485 1.67443 8.36202 1.67443H15.6377C15.9512 1.67443 16.0407 1.67565 16.1035 1.6824ZM2.19088 8.13026C2.529 7.76503 3.03746 7.52279 4.02543 7.39138C5.03135 7.25759 6.37793 7.25582 8.28545 7.25582H15.7145C17.622 7.25582 18.9686 7.25759 19.9746 7.39138C20.9625 7.52279 21.4709 7.76503 21.8091 8.13026C22.1394 8.48699 22.3184 8.97245 22.3253 9.89213C22.3326 10.8411 22.1583 12.0924 21.9056 13.8846L21.4335 17.2334C21.2351 18.6409 21.0961 19.6141 20.8918 20.3439C20.6951 21.0465 20.4636 21.422 20.1414 21.6887C19.8138 21.96 19.3739 22.134 18.5914 22.2279C17.7891 22.3242 16.7403 22.3256 15.2423 22.3256H8.7576C7.25968 22.3256 6.21089 22.3242 5.40858 22.2279C4.62604 22.134 4.1862 21.96 3.85857 21.6887C3.53631 21.422 3.30483 21.0465 3.10813 20.3439C2.90388 19.6141 2.76491 18.6409 2.56647 17.2334L2.09431 13.8846C1.84164 12.0924 1.66742 10.8411 1.67462 9.89213C1.6816 8.97245 1.86062 8.48699 2.19088 8.13026Z" fill="white"/>
</svg>
