<svg width="24" height="24" viewBox="0 0 24 24" fill="none" xmlns="http://www.w3.org/2000/svg">
<path d="M7.81215 8.75146e-06H16.1883C16.4673 -6.32487e-05 16.6811 -0.00011118 16.8681 0.0181769C18.1975 0.148221 19.2856 0.947495 19.747 2.02414H4.25342C4.71483 0.947495 5.80294 0.148221 7.13233 0.0181769C7.31929 -0.00011118 7.53318 -6.32487e-05 7.81215 8.75146e-06Z" fill="white"/>
<path d="M5.17293 3.26782C3.50418 3.26782 2.13586 4.27552 1.67923 5.61238C1.66971 5.64024 1.66058 5.66826 1.65186 5.6964C2.12964 5.55172 2.62688 5.45719 3.13023 5.39267C4.42669 5.22645 6.0651 5.22654 7.96834 5.22665H16.2388C18.142 5.22654 19.7805 5.22645 21.077 5.39267C21.5803 5.45719 22.0776 5.55172 22.5553 5.6964C22.5466 5.66826 22.5375 5.64024 22.5279 5.61238C22.0713 4.27552 20.703 3.26782 19.0342 3.26782H5.17293Z" fill="white"/>
<path d="M11.0998 18.0001C11.0998 17.5031 10.6968 17.1001 10.1998 17.1001C9.70276 17.1001 9.2998 17.5031 9.2998 18.0001C9.2998 18.4971 9.70276 18.9001 10.1998 18.9001C10.6968 18.9001 11.0998 18.4971 11.0998 18.0001Z" fill="white"/>
<path fill-rule="evenodd" clip-rule="evenodd" d="M8.00687 6.65039H15.9931C20.0429 6.65039 22.0678 6.65039 23.2053 7.83459C24.3426 9.01878 24.075 10.8484 23.5398 14.5075L23.0322 17.9773C22.6125 20.8469 22.4027 22.2816 21.3261 23.1408C20.2494 24 18.6615 24 15.4855 24H8.51441C5.33856 24 3.75064 24 2.67401 23.1408C1.59738 22.2816 1.38751 20.8469 0.967777 17.9773L0.460213 14.5075C-0.0750235 10.8483 -0.342636 9.01879 0.794785 7.83459C1.93221 6.65039 3.9571 6.65039 8.00687 6.65039ZM12.9 10.2C12.9 9.70291 12.497 9.29995 12 9.29995C11.503 9.29995 11.1 9.70291 11.1 10.2V15.4536C10.8185 15.3541 10.5156 15.3 10.2 15.3C8.70884 15.3 7.50001 16.5088 7.50001 18C7.50001 19.4911 8.70884 20.7 10.2 20.7C11.6911 20.7 12.9 19.4911 12.9 18V13.5836C13.7042 14.236 14.714 14.7 15.6 14.7C16.0971 14.7 16.5 14.297 16.5 13.8C16.5 13.3029 16.0971 12.9 15.6 12.9C15.2335 12.9 14.5374 12.6376 13.9002 12.0723C13.2785 11.5207 12.9 10.8463 12.9 10.2Z" fill="white"/>
</svg>
