<svg width="24" height="22" viewBox="0 0 24 22" fill="none" xmlns="http://www.w3.org/2000/svg">
<path d="M23.9957 6.67063C23.9259 4.34141 22.8131 2.42695 21.239 1.25653C19.2142 -0.250546 16.4226 -0.527055 14.1023 1.11722C13.3365 1.6618 12.6197 2.41534 12.0001 3.40528C11.3805 2.41534 10.6648 1.6618 9.89793 1.11828C7.57758 -0.527055 4.78705 -0.250546 2.76124 1.25759C1.18597 2.428 0.074343 4.34246 0.00452523 6.67168C-0.0336564 7.90859 0.162706 9.28902 0.864157 10.6853C1.96597 12.8773 7.14231 17.751 11.9597 21.9599L11.9979 22L12.0001 21.9979L12.0023 22L12.0416 21.9599C16.8579 17.7521 22.0331 12.8784 23.136 10.6853C23.8386 9.28902 24.0328 7.90753 23.9957 6.67063Z" fill="white"/>
</svg>
