<svg width="24" height="24" viewBox="0 0 24 24" fill="none" xmlns="http://www.w3.org/2000/svg">
<path fill-rule="evenodd" clip-rule="evenodd" d="M11.8 0C11.2477 0 10.8 0.447715 10.8 1V9.8C10.8 10.3523 10.3523 10.8 9.8 10.8H1C0.447717 10.8 0 11.2477 0 11.8V12.2C0 12.7523 0.447715 13.2 1 13.2H9.8C10.3523 13.2 10.8 13.6477 10.8 14.2V23C10.8 23.5523 11.2477 24 11.8 24H12.2C12.7523 24 13.2 23.5523 13.2 23V14.2C13.2 13.6477 13.6477 13.2 14.2 13.2H23C23.5523 13.2 24 12.7523 24 12.2V11.8C24 11.2477 23.5523 10.8 23 10.8H14.2C13.6477 10.8 13.2 10.3523 13.2 9.8V1C13.2 0.447717 12.7523 0 12.2 0H11.8Z" fill="#CDDC39"/>
</svg>
