<svg width="32" height="32" viewBox="0 0 32 32" fill="none" xmlns="http://www.w3.org/2000/svg">
<path d="M16 1C7.7166 1 1 7.71557 1 16C1 24.2844 7.71594 31 16 31C24.2847 31 31 24.2844 31 16C31 7.71557 24.2847 1 16 1ZM16 5.48517C18.7409 5.48517 20.962 7.70701 20.962 10.4467C20.962 13.1871 18.7409 15.4083 16 15.4083C13.2604 15.4083 11.0393 13.1871 11.0393 10.4467C11.0393 7.70701 13.2604 5.48517 16 5.48517ZM15.9967 27.0782C13.263 27.0782 10.7593 26.0826 8.82812 24.4347C8.35768 24.0334 8.08622 23.445 8.08622 22.8276C8.08622 20.049 10.335 17.8252 13.1141 17.8252H18.8872C21.667 17.8252 23.9072 20.049 23.9072 22.8276C23.9072 23.4456 23.637 24.0327 23.1659 24.434C21.2354 26.0826 18.731 27.0782 15.9967 27.0782Z" stroke="white" stroke-width="2"/>
</svg>
