<svg width="34" height="34" viewBox="0 0 34 34" fill="none" xmlns="http://www.w3.org/2000/svg">
<path d="M17 1C8.16437 1 1 8.16328 1 17C1 25.8367 8.16367 33 17 33C25.837 33 33 25.8367 33 17C33 8.16328 25.837 1 17 1ZM17 5.78419C19.9237 5.78419 22.2928 8.15414 22.2928 11.0765C22.2928 13.9996 19.9237 16.3689 17 16.3689C14.0777 16.3689 11.7086 13.9996 11.7086 11.0765C11.7086 8.15414 14.0777 5.78419 17 5.78419ZM16.9965 28.8167C14.0806 28.8167 11.4099 27.7548 9.35 25.997C8.84819 25.5689 8.55864 24.9413 8.55864 24.2828C8.55864 21.3189 10.9573 18.9468 13.9217 18.9468H20.0797C23.0448 18.9468 25.4343 21.3189 25.4343 24.2828C25.4343 24.942 25.1462 25.5682 24.6437 25.9963C22.5845 27.7548 19.9131 28.8167 16.9965 28.8167Z" stroke="white" stroke-width="2"/>
</svg>
