<svg width="32" height="32" viewBox="0 0 32 32" fill="none" xmlns="http://www.w3.org/2000/svg">
<path d="M2.49941 12.959C3.32752 12.959 3.99883 12.2897 3.99883 11.4641C3.99883 10.6385 3.32752 9.96924 2.49941 9.96924C1.67131 9.96924 1 10.6385 1 11.4641C1 12.2897 1.67131 12.959 2.49941 12.959Z" fill="white" stroke="white" stroke-width="0.672014"/>
<path d="M6.95254 12.959C7.78064 12.959 8.45195 12.2897 8.45195 11.4641C8.45195 10.6385 7.78064 9.96924 6.95254 9.96924C6.12444 9.96924 5.45312 10.6385 5.45312 11.4641C5.45312 12.2897 6.12444 12.959 6.95254 12.959Z" fill="white" stroke="white" stroke-width="0.672014"/>
<path d="M11.496 12.959C12.3241 12.959 12.9954 12.2897 12.9954 11.4641C12.9954 10.6385 12.3241 9.96924 11.496 9.96924C10.6679 9.96924 9.99658 10.6385 9.99658 11.4641C9.99658 12.2897 10.6679 12.959 11.496 12.959Z" fill="white" stroke="white" stroke-width="0.672014"/>
<path d="M15.9491 8.52006C16.7772 8.52006 17.4485 7.85078 17.4485 7.02517C17.4485 6.19956 16.7772 5.53027 15.9491 5.53027C15.121 5.53027 14.4497 6.19956 14.4497 7.02517C14.4497 7.85078 15.121 8.52006 15.9491 8.52006Z" fill="white" stroke="white" stroke-width="0.672014"/>
<path d="M15.9491 12.959C16.7772 12.959 17.4485 12.2897 17.4485 11.4641C17.4485 10.6385 16.7772 9.96924 15.9491 9.96924C15.121 9.96924 14.4497 10.6385 14.4497 11.4641C14.4497 12.2897 15.121 12.959 15.9491 12.959Z" fill="white" stroke="white" stroke-width="0.672014"/>
<path d="M15.949 3.98979C16.7771 3.98979 17.4484 3.3205 17.4484 2.49489C17.4484 1.66929 16.7771 1 15.949 1C15.1209 1 14.4496 1.66929 14.4496 2.49489C14.4496 3.3205 15.1209 3.98979 15.949 3.98979Z" fill="white" stroke="white" stroke-width="0.672014"/>
<path d="M20.4018 8.52006C21.2299 8.52006 21.9012 7.85078 21.9012 7.02517C21.9012 6.19956 21.2299 5.53027 20.4018 5.53027C19.5737 5.53027 18.9023 6.19956 18.9023 7.02517C18.9023 7.85078 19.5737 8.52006 20.4018 8.52006Z" fill="white" stroke="white" stroke-width="0.672014"/>
<path d="M20.4018 12.959C21.2299 12.959 21.9012 12.2897 21.9012 11.4641C21.9012 10.6385 21.2299 9.96924 20.4018 9.96924C19.5737 9.96924 18.9023 10.6385 18.9023 11.4641C18.9023 12.2897 19.5737 12.959 20.4018 12.959Z" fill="white" stroke="white" stroke-width="0.672014"/>
<path d="M2.49941 17.3985C3.32752 17.3985 3.99883 16.7292 3.99883 15.9036C3.99883 15.078 3.32752 14.4087 2.49941 14.4087C1.67131 14.4087 1 15.078 1 15.9036C1 16.7292 1.67131 17.3985 2.49941 17.3985Z" fill="white" stroke="white" stroke-width="0.672014"/>
<path d="M6.95254 17.3985C7.78064 17.3985 8.45195 16.7292 8.45195 15.9036C8.45195 15.078 7.78064 14.4087 6.95254 14.4087C6.12444 14.4087 5.45312 15.078 5.45312 15.9036C5.45312 16.7292 6.12444 17.3985 6.95254 17.3985Z" fill="white" stroke="white" stroke-width="0.672014"/>
<path d="M11.496 17.3985C12.3241 17.3985 12.9954 16.7292 12.9954 15.9036C12.9954 15.078 12.3241 14.4087 11.496 14.4087C10.6679 14.4087 9.99658 15.078 9.99658 15.9036C9.99658 16.7292 10.6679 17.3985 11.496 17.3985Z" fill="white" stroke="white" stroke-width="0.672014"/>
<path d="M15.9491 17.3985C16.7772 17.3985 17.4485 16.7292 17.4485 15.9036C17.4485 15.078 16.7772 14.4087 15.9491 14.4087C15.121 14.4087 14.4497 15.078 14.4497 15.9036C14.4497 16.7292 15.121 17.3985 15.9491 17.3985Z" fill="white" stroke="white" stroke-width="0.672014"/>
<path d="M20.4018 17.3985C21.2299 17.3985 21.9012 16.7292 21.9012 15.9036C21.9012 15.078 21.2299 14.4087 20.4018 14.4087C19.5737 14.4087 18.9023 15.078 18.9023 15.9036C18.9023 16.7292 19.5737 17.3985 20.4018 17.3985Z" fill="white" stroke="white" stroke-width="0.672014"/>
<path d="M2.49951 21.929C3.32767 21.929 3.99903 21.2596 3.99903 20.434C3.99903 19.6083 3.32767 18.939 2.49951 18.939C1.67136 18.939 1 19.6083 1 20.434C1 21.2596 1.67136 21.929 2.49951 21.929Z" fill="white" stroke="white" stroke-width="0.672014"/>
<path d="M6.95215 21.929C7.78031 21.929 8.45167 21.2596 8.45167 20.434C8.45167 19.6083 7.78031 18.939 6.95215 18.939C6.12399 18.939 5.45264 19.6083 5.45264 20.434C5.45264 21.2596 6.12399 21.929 6.95215 21.929Z" fill="white" stroke="white" stroke-width="0.672014"/>
<path d="M11.4961 21.929C12.3243 21.929 12.9956 21.2596 12.9956 20.434C12.9956 19.6083 12.3243 18.939 11.4961 18.939C10.6679 18.939 9.99658 19.6083 9.99658 20.434C9.99658 21.2596 10.6679 21.929 11.4961 21.929Z" fill="white" stroke="white" stroke-width="0.672014"/>
<path d="M15.9492 21.929C16.7774 21.929 17.4487 21.2596 17.4487 20.434C17.4487 19.6083 16.7774 18.939 15.9492 18.939C15.1211 18.939 14.4497 19.6083 14.4497 20.434C14.4497 21.2596 15.1211 21.929 15.9492 21.929Z" fill="white" stroke="white" stroke-width="0.672014"/>
<path d="M20.4019 21.929C21.23 21.929 21.9014 21.2596 21.9014 20.434C21.9014 19.6083 21.23 18.939 20.4019 18.939C19.5737 18.939 18.9023 19.6083 18.9023 20.434C18.9023 21.2596 19.5737 21.929 20.4019 21.929Z" fill="white" stroke="white" stroke-width="0.672014"/>
<path d="M15.9491 26.3736C16.7772 26.3736 17.4485 25.7043 17.4485 24.8787C17.4485 24.0531 16.7772 23.3838 15.9491 23.3838C15.121 23.3838 14.4497 24.0531 14.4497 24.8787C14.4497 25.7043 15.121 26.3736 15.9491 26.3736Z" fill="white" stroke="white" stroke-width="0.672014"/>
<path d="M20.4018 26.3736C21.2299 26.3736 21.9012 25.7043 21.9012 24.8787C21.9012 24.0531 21.2299 23.3838 20.4018 23.3838C19.5737 23.3838 18.9023 24.0531 18.9023 24.8787C18.9023 25.7043 19.5737 26.3736 20.4018 26.3736Z" fill="white" stroke="white" stroke-width="0.672014"/>
<path d="M25.0424 12.959C25.8705 12.959 26.5418 12.2897 26.5418 11.4641C26.5418 10.6385 25.8705 9.96924 25.0424 9.96924C24.2143 9.96924 23.543 10.6385 23.543 11.4641C23.543 12.2897 24.2143 12.959 25.0424 12.959Z" fill="white" stroke="white" stroke-width="0.672014"/>
<path d="M25.0424 17.3985C25.8705 17.3985 26.5418 16.7292 26.5418 15.9036C26.5418 15.078 25.8705 14.4087 25.0424 14.4087C24.2143 14.4087 23.543 15.078 23.543 15.9036C23.543 16.7292 24.2143 17.3985 25.0424 17.3985Z" fill="white" stroke="white" stroke-width="0.672014"/>
<path d="M25.042 21.929C25.8702 21.929 26.5415 21.2596 26.5415 20.434C26.5415 19.6083 25.8702 18.939 25.042 18.939C24.2138 18.939 23.5425 19.6083 23.5425 20.434C23.5425 21.2596 24.2138 21.929 25.042 21.929Z" fill="white" stroke="white" stroke-width="0.672014"/>
<path d="M15.9492 30.9998C16.7774 30.9998 17.4487 30.3304 17.4487 29.5048C17.4487 28.6791 16.7774 28.0098 15.9492 28.0098C15.1211 28.0098 14.4497 28.6791 14.4497 29.5048C14.4497 30.3304 15.1211 30.9998 15.9492 30.9998Z" fill="white" stroke="white" stroke-width="0.672014"/>
<path d="M29.5004 17.3985C30.3285 17.3985 30.9998 16.7292 30.9998 15.9036C30.9998 15.078 30.3285 14.4087 29.5004 14.4087C28.6723 14.4087 28.001 15.078 28.001 15.9036C28.001 16.7292 28.6723 17.3985 29.5004 17.3985Z" fill="white" stroke="white" stroke-width="0.672014"/>
</svg>
