<svg width="25" height="25" viewBox="0 0 25 25" fill="none" xmlns="http://www.w3.org/2000/svg">
<g clip-path="url(#clip0_964_2)">
<path fill-rule="evenodd" clip-rule="evenodd" d="M12.5002 12.6464V7.42867L17.2446 10.5917L16.089 12.3251L14.5835 11.3214V15.1042C14.5835 16.6182 13.1299 17.7084 11.4585 17.7084C9.78707 17.7084 8.3335 16.6182 8.3335 15.1042C8.3335 13.5902 9.78707 12.5 11.4585 12.5C11.8201 12.5 12.1715 12.5511 12.5002 12.6464ZM19.7918 21.875H17.7085V19.7917H19.7918V17.7084H21.8752V19.7917H23.9585V21.875H21.8752V23.9584H19.7918V21.875ZM15.6252 20.8334V22.9167H4.16683C3.01624 22.9167 2.0835 21.984 2.0835 20.8334V4.16671C2.0835 3.01611 3.01624 2.08337 4.16683 2.08337H20.8335C21.9841 2.08337 22.9168 3.01611 22.9168 4.16671V14.5834H20.8335V4.16671H4.16683V20.8334H15.6252ZM11.4585 15.625C12.0883 15.625 12.5002 15.3161 12.5002 15.1042C12.5002 14.8923 12.0883 14.5834 11.4585 14.5834C10.8287 14.5834 10.4168 14.8923 10.4168 15.1042C10.4168 15.3161 10.8287 15.625 11.4585 15.625Z" fill="white" stroke="white" stroke-width="0.00064"/>
</g>
<defs>
<clipPath id="clip0_964_2">
<rect width="25" height="25" fill="white"/>
</clipPath>
</defs>
</svg>
