<svg width="25" height="22" viewBox="0 0 25 22" fill="none" xmlns="http://www.w3.org/2000/svg">
<path fill-rule="evenodd" clip-rule="evenodd" d="M13.7479 9.77778C13.7479 9.10274 13.1884 8.55556 12.4981 8.55556C11.8078 8.55556 11.2483 9.10274 11.2483 9.77778V11.6111H9.37358C8.68333 11.6111 8.12377 12.1583 8.12377 12.8333C8.12377 13.5084 8.68333 14.0556 9.37358 14.0556H11.2483V15.8889C11.2483 16.5639 11.8078 17.1111 12.4981 17.1111C13.1884 17.1111 13.7479 16.5639 13.7479 15.8889V14.0556H15.6226C16.3129 14.0556 16.8724 13.5084 16.8724 12.8333C16.8724 12.1583 16.3129 11.6111 15.6226 11.6111H13.7479V9.77778ZM4.27384 0.291696C5.28692 0.0715246 6.49348 0 7.8888 0H9.91054C11.1642 0 12.3349 0.6127 13.0303 1.63277L14.0457 3.12241C14.2776 3.46241 14.6678 3.66667 15.0857 3.66667H21.404C23.4006 3.66667 25.0188 5.20807 24.9998 7.19302C24.9771 9.5568 24.9962 11.9214 24.9962 14.2853C24.9962 15.6498 24.9231 16.8298 24.6979 17.8205C24.4697 18.8252 24.0687 19.7085 23.3608 20.4007C22.6529 21.093 21.7497 21.4851 20.7224 21.7083C19.7093 21.9285 18.5027 22 17.1074 22H7.8888C6.49348 22 5.28692 21.9285 4.27384 21.7083C3.24656 21.4851 2.34324 21.093 1.63535 20.4007C0.927472 19.7085 0.526583 18.8252 0.29828 17.8205C0.073139 16.8298 0 15.6498 0 14.2853V7.71467C0 6.35014 0.073139 5.17022 0.29828 4.1795C0.526583 3.17489 0.927472 2.29152 1.63535 1.59925C2.34324 0.906999 3.24656 0.514959 4.27384 0.291696Z" fill="white"/>
</svg>
