<svg width="20" height="20" viewBox="0 0 20 20" fill="none" xmlns="http://www.w3.org/2000/svg">
<path d="M20 0.915272C20 0.641656 19.8836 0.36804 19.6508 0.20843C19.4412 0.0260194 19.1618 -0.0423846 18.8824 0.0260194L7.14785 2.35176C6.70547 2.44296 6.40279 2.80778 6.40279 3.24101V13.7068C5.75087 13.342 4.95925 13.1368 4.12107 13.1368C3.05006 13.1368 2.04889 13.456 1.25728 14.0944C0.442375 14.7785 0 15.5993 0 16.5798C0 18.5179 1.86263 20 4.12107 20C5.19208 20 6.14668 19.7264 6.91502 19.1107C7.72992 18.4495 8.12573 17.5831 8.12573 16.6254V16.6482L8.19558 7.71007L18.0908 5.74916V11.1759C17.4622 10.8111 16.7171 10.6514 15.8789 10.6514C14.8079 10.6514 13.8068 10.9479 13.0151 11.5635C12.2002 12.2247 11.7346 13.0684 11.7346 14.0488C11.7346 15.987 13.5972 17.4919 15.8556 17.4919C18.021 17.4919 19.8137 16.101 19.9767 14.2769C19.9767 14.2541 19.9767 14.1629 19.9767 13.912L20 0.915272ZM5.79744 17.6971C5.35506 18.0619 4.77299 18.1759 4.12107 18.1759C2.88708 18.1759 1.86263 17.4919 1.86263 16.5798C1.86263 16.1694 2.07218 15.8046 2.46799 15.5081C2.91036 15.1433 3.49243 15.0065 4.14435 15.0065C5.37835 15.0065 6.42608 15.7361 6.42608 16.6482C6.40279 17.0358 6.19325 17.3778 5.79744 17.6971ZM8.26542 6.06838V3.99345L18.1374 2.00974V4.08466L8.26542 6.06838ZM15.8789 15.6677C14.6449 15.6677 13.5972 14.9381 13.5972 14.026C13.5972 13.6156 13.8068 13.2736 14.2026 12.9544C14.6449 12.5896 15.227 12.4756 15.8789 12.4756C17.0431 12.4756 18.1607 13.0684 18.1607 13.9348V14.1857C17.9278 15.0521 17.0431 15.6677 15.8789 15.6677Z" fill="white"/>
</svg>
