<svg width="20" height="20" viewBox="0 0 20 20" fill="none" xmlns="http://www.w3.org/2000/svg">
<path d="M9.94783 5.34994C10.2143 5.34994 10.4698 5.24476 10.6582 5.05756C10.8466 4.87035 10.9525 4.61644 10.9525 4.35169V3.80265L16.9803 2.30528V5.24013L12.6603 6.31824C12.3939 6.35001 12.1511 6.48565 11.9853 6.69532C11.8195 6.90499 11.7443 7.17152 11.7763 7.43627C11.8082 7.70102 11.9447 7.94231 12.1558 8.10705C12.3668 8.2718 12.635 8.3465 12.9015 8.31473H13.1426L18.226 7.01701H18.2963L18.4872 6.92717L18.6379 6.82734C18.6867 6.7822 18.7305 6.732 18.7685 6.6776C18.8077 6.63172 18.8414 6.58147 18.869 6.52787C18.8994 6.47189 18.9198 6.41109 18.9293 6.34818C18.9386 6.2853 18.9386 6.2214 18.9293 6.15852C18.9641 6.11967 18.9853 6.07061 18.9895 6.01876V1.02753C18.9941 0.873604 18.9627 0.720721 18.8979 0.580839C18.8331 0.440956 18.7366 0.317867 18.616 0.221198C18.4954 0.12453 18.3539 0.0569045 18.2025 0.0236107C18.0512 -0.00968301 17.8942 -0.00774193 17.7438 0.0292822L9.70672 2.02578C9.48381 2.08043 9.28647 2.2093 9.14755 2.39093C9.00863 2.57256 8.93651 2.79599 8.94319 3.02402V4.35169C8.94319 4.61644 9.04904 4.87035 9.23744 5.05756C9.42585 5.24476 9.68138 5.34994 9.94783 5.34994ZM19.7028 18.3271L10.6611 9.34292L1.61941 0.358703C1.42804 0.211585 1.18967 0.138032 0.948099 0.151562C0.706528 0.165092 0.477986 0.264795 0.304472 0.432349C0.130958 0.599903 0.0241294 0.824051 0.00361808 1.0636C-0.0168932 1.30315 0.0502907 1.54201 0.192824 1.73628L8.94319 10.421V13.3559C8.47379 13.1281 7.95864 13.0086 7.43624 13.0065C6.7408 13.0065 6.06097 13.2114 5.48273 13.5953C4.90449 13.9792 4.45381 14.5249 4.18768 15.1633C3.92154 15.8017 3.85191 16.5042 3.98758 17.182C4.12326 17.8597 4.45814 18.4823 4.9499 18.9709C5.44165 19.4595 6.06818 19.7923 6.75026 19.9271C7.43234 20.0619 8.13933 19.9927 8.78184 19.7283C9.42435 19.4638 9.9735 19.016 10.3599 18.4414C10.7462 17.8669 10.9525 17.1914 10.9525 16.5003V12.4175L18.2762 19.7047C18.3696 19.7983 18.4808 19.8725 18.6032 19.9232C18.7256 19.9739 18.8569 20 18.9895 20C19.1222 20 19.2535 19.9739 19.3759 19.9232C19.4983 19.8725 19.6094 19.7983 19.7028 19.7047C19.797 19.6119 19.8717 19.5015 19.9227 19.3799C19.9737 19.2582 20 19.1277 20 18.996C20 18.8642 19.9737 18.7337 19.9227 18.6121C19.8717 18.4904 19.797 18.38 19.7028 18.2872V18.3271ZM7.43624 17.9977C7.13819 17.9977 6.84684 17.9099 6.59902 17.7454C6.35121 17.5808 6.15806 17.347 6.044 17.0734C5.92994 16.7998 5.9001 16.4987 5.95824 16.2082C6.01639 15.9178 6.15991 15.651 6.37066 15.4416C6.58141 15.2321 6.84993 15.0895 7.14225 15.0318C7.43457 14.974 7.73757 15.0036 8.01293 15.117C8.28829 15.2303 8.52364 15.4222 8.68923 15.6685C8.85481 15.9147 8.94319 16.2042 8.94319 16.5003C8.94319 16.8975 8.78443 17.2783 8.50182 17.5591C8.21921 17.84 7.83591 17.9977 7.43624 17.9977Z" fill="white"/>
</svg>
