<svg width="30" height="30" viewBox="0 0 30 30" fill="none" xmlns="http://www.w3.org/2000/svg">
<path d="M14.9999 0.000156395C12.0332 0.000156395 9.13314 0.879886 6.66642 2.5281C4.19969 4.17631 2.27712 6.51898 1.14181 9.25986C0.00649924 12.0007 -0.290549 15.0167 0.288226 17.9264C0.867001 20.8361 2.29561 23.5088 4.39338 25.6066C6.49116 27.7044 9.16389 29.133 12.0736 29.7118C14.9833 30.2906 17.9993 29.9935 20.7401 28.8582C23.481 27.7229 25.8237 25.8003 27.4719 23.3336C29.1201 20.8669 29.9998 17.9668 29.9998 15.0001C30.0089 13.0277 29.6271 11.0731 28.8764 9.24919C28.1258 7.42524 27.0213 5.76808 25.6266 4.37341C24.2319 2.97873 22.5748 1.87419 20.7508 1.12357C18.9269 0.372952 16.9723 -0.00887049 14.9999 0.000156395ZM12.9545 19.7728C12.9545 20.1344 12.8108 20.4813 12.5551 20.737C12.2994 20.9927 11.9525 21.1364 11.5909 21.1364C11.2292 21.1364 10.8824 20.9927 10.6266 20.737C10.3709 20.4813 10.2272 20.1344 10.2272 19.7728V10.2274C10.2272 9.86572 10.3709 9.51887 10.6266 9.26314C10.8824 9.00741 11.2292 8.86375 11.5909 8.86375C11.9472 8.88034 12.2844 9.02934 12.5367 9.28156C12.7889 9.53378 12.9379 9.87107 12.9545 10.2274V19.7728ZM19.7726 19.7728C19.7726 20.1344 19.629 20.4813 19.3732 20.737C19.1175 20.9927 18.7707 21.1364 18.409 21.1364C18.0473 21.1364 17.7005 20.9927 17.4448 20.737C17.189 20.4813 17.0454 20.1344 17.0454 19.7728V10.2274C17.0454 9.86572 17.189 9.51887 17.4448 9.26314C17.7005 9.00741 18.0473 8.86375 18.409 8.86375C18.7653 8.88034 19.1026 9.02934 19.3548 9.28156C19.607 9.53378 19.756 9.87107 19.7726 10.2274V19.7728Z" fill="white"/>
</svg>
