<svg width="20" height="20" viewBox="0 0 20 20" fill="none" xmlns="http://www.w3.org/2000/svg">
<path fill-rule="evenodd" clip-rule="evenodd" d="M0.566316 0.14125C0.737098 0.0357646 0.92897 -0.0120875 1.12106 0.00289917C1.31315 0.0178858 1.4981 0.0951376 1.65579 0.22625L12.1821 8.97625C12.3207 9.09152 12.4338 9.24475 12.5119 9.42296C12.59 9.60117 12.6307 9.79911 12.6307 10C12.6307 10.2009 12.59 10.3988 12.5119 10.577C12.4338 10.7552 12.3207 10.9085 12.1821 11.0238L1.65579 19.7738C1.49806 19.9047 1.31312 19.9818 1.12107 19.9967C0.929019 20.0115 0.737215 19.9636 0.566511 19.858C0.395807 19.7525 0.252736 19.5934 0.152856 19.398C0.0529749 19.2027 0.000106863 18.9785 0 18.75V1.25C-2.31186e-05 1.02136 0.0527631 0.797091 0.152614 0.601599C0.252465 0.406108 0.395556 0.246882 0.566316 0.14125ZM14.7368 2.25C14.7368 1.65326 14.9365 1.08097 15.2918 0.65901C15.6471 0.237053 16.1291 0 16.6316 0H18.1053C18.3541 0 18.6005 0.0581979 18.8303 0.171271C19.0602 0.284344 19.2691 0.450078 19.445 0.65901C19.621 0.867942 19.7606 1.11598 19.8558 1.38896C19.951 1.66194 20 1.95453 20 2.25V17.75C20 18.0455 19.951 18.3381 19.8558 18.611C19.7606 18.884 19.621 19.1321 19.445 19.341C19.2691 19.5499 19.0602 19.7157 18.8303 19.8287C18.6005 19.9418 18.3541 20 18.1053 20H16.6316C16.1291 20 15.6471 19.7629 15.2918 19.341C14.9365 18.919 14.7368 18.3467 14.7368 17.75V2.25Z" fill="white"/>
</svg>
