<svg width="22" height="20" viewBox="0 0 22 20" fill="none" xmlns="http://www.w3.org/2000/svg">
<path d="M21.996 6.06421C21.932 3.94673 20.912 2.20632 19.469 1.1423C17.6131 -0.227769 15.0541 -0.479141 12.9271 1.01566C12.2251 1.51073 11.5681 2.19576 11.0001 3.09571C10.4321 2.19576 9.7761 1.51073 9.0731 1.01662C6.94611 -0.479141 4.38813 -0.227769 2.53113 1.14326C1.08714 2.20728 0.0681478 3.94769 0.00414812 6.06517C-0.0308517 7.18962 0.149147 8.44456 0.792144 9.7139C1.80214 11.7066 6.54711 16.1373 10.9631 19.9635L10.9981 20L11.0001 19.9981L11.0021 20L11.0381 19.9635C15.4531 16.1383 20.197 11.7076 21.208 9.7139C21.852 8.44456 22.03 7.18866 21.996 6.06421Z" fill="#1E88E5"/>
</svg>
