<svg width="20" height="20" viewBox="0 0 20 20" fill="none" xmlns="http://www.w3.org/2000/svg">
<path d="M0 2.25023C0 1.65351 0.199624 1.08124 0.554956 0.659304C0.910288 0.237366 1.39222 0.000323653 1.89474 0.000323653H3.36842C3.61724 0.000323653 3.86363 0.058519 4.09351 0.171587C4.32339 0.284655 4.53226 0.450382 4.7082 0.659304C4.88414 0.868227 5.02371 1.11625 5.11893 1.38922C5.21415 1.6622 5.26316 1.95476 5.26316 2.25023V17.7495C5.26316 18.3463 5.06353 18.9185 4.7082 19.3405C4.35287 19.7624 3.87094 19.9994 3.36842 19.9994H1.89474C1.39222 19.9994 0.910288 19.7624 0.554956 19.3405C0.199624 18.9185 0 18.3463 0 17.7495V2.25023ZM19.4337 0.141567C19.6044 0.247195 19.7475 0.406413 19.8474 0.601896C19.9472 0.797379 20 1.02164 20 1.25027V18.7495C20.0001 18.9781 19.9474 19.2024 19.8476 19.3979C19.7478 19.5935 19.6047 19.7528 19.434 19.8584C19.2632 19.9641 19.0713 20.0122 18.8792 19.9974C18.6871 19.9826 18.502 19.9055 18.3442 19.7745L7.81789 11.0248C7.67892 10.9096 7.56542 10.7563 7.48705 10.5779C7.40868 10.3994 7.36775 10.2011 7.36775 9.99988C7.36775 9.79863 7.40868 9.60035 7.48705 9.4219C7.56542 9.24346 7.67892 9.09012 7.81789 8.97493L18.3442 0.225314C18.502 0.0944032 18.687 0.0173767 18.8791 0.00261118C19.0712 -0.0121543 19.263 0.0359068 19.4337 0.141567Z" fill="white"/>
</svg>
