<svg width="30" height="30" viewBox="0 0 30 30" fill="none" xmlns="http://www.w3.org/2000/svg">
<path d="M15 0C6.71631 0 0 6.71631 0 15C0 23.2836 6.71631 30 15 30C23.2836 30 30 23.2836 30 15C30 6.71631 23.2836 0 15 0ZM20.57 15.1698L12.1325 20.2056C12.0721 20.2423 11.9952 20.2441 11.933 20.2075C11.8726 20.1727 11.8341 20.1077 11.8341 20.0354V14.9995V9.96357C11.8341 9.89221 11.8726 9.82629 11.933 9.79143C11.9952 9.75574 12.0721 9.75756 12.1325 9.79324L20.57 14.8301C20.6304 14.8644 20.6662 14.9307 20.6662 14.9994C20.6662 15.0696 20.6305 15.1346 20.57 15.1698Z" fill="white"/>
</svg>
