<svg width="25" height="20" viewBox="0 0 25 20" fill="none" xmlns="http://www.w3.org/2000/svg">
<path d="M1.63397 0.150443L1.77824 0.246842L24.6949 18.575C25.1017 18.9003 25.1017 19.4278 24.6949 19.7532C24.3333 20.0424 23.772 20.0745 23.366 19.8496L23.2218 19.7532L19.0219 16.3949C18.4244 16.5354 17.799 16.6238 17.154 16.6536L16.6667 16.6648L9.80625 16.6636L12.1984 18.5778C12.56 18.867 12.6002 19.3159 12.319 19.6406L12.1984 19.756C11.8368 20.0452 11.2755 20.0773 10.8696 19.8524L10.7253 19.756L6.5551 16.4208C6.1935 16.1316 6.15332 15.6827 6.43456 15.358L6.5551 15.2426L10.7253 11.9074C11.1321 11.582 11.7916 11.582 12.1984 11.9074C12.56 12.1966 12.6002 12.6455 12.319 12.9702L12.1984 13.0855L9.80625 14.9974L16.6667 14.9986C16.8626 14.9986 17.0565 14.9914 17.2478 14.9773L5.47113 5.5552C3.45903 6.38564 2.08333 8.06433 2.08333 10C2.08333 11.3655 2.76798 12.6032 3.87771 13.5053C4.05718 13.6526 4.16667 13.8551 4.16667 14.078C4.16667 14.5381 3.7003 14.9111 3.125 14.9111C2.83842 14.9111 2.57886 14.8185 2.39053 14.6688C0.912297 13.4699 0 11.8201 0 10C0 7.60744 1.57633 5.50934 3.94369 4.33376L0.305097 1.42502C-0.101699 1.09967 -0.101699 0.572186 0.305097 0.246842C0.666694 -0.0423536 1.22799 -0.0744867 1.63397 0.150443ZM21.875 5.08289C22.1307 5.08289 22.3649 5.15657 22.5461 5.27883L22.6947 5.39819C24.1229 6.59452 25 8.21534 25 10C25 11.7956 24.1121 13.4254 22.6683 14.6238L21.1958 13.4446C22.2622 12.548 22.9167 11.3351 22.9167 10C22.9167 8.63045 22.228 7.38954 21.1125 6.48671C20.942 6.33987 20.8333 6.13808 20.8333 5.91599C20.8333 5.45588 21.2997 5.08289 21.875 5.08289ZM12.8051 0.244008C13.1667 -0.0451868 13.728 -0.0773195 14.134 0.14761L14.2782 0.244008L18.4484 3.57923L18.569 3.69461C18.8151 3.97871 18.8151 4.35793 18.569 4.64203L18.4484 4.75741L14.3896 8.00107L12.9167 6.82307L15.1958 5.00025H10.6354L8.55208 3.33406H15.1958L12.8051 1.42219L12.6846 1.30681C12.4033 0.982117 12.4435 0.533204 12.8051 0.244008Z" fill="white"/>
</svg>
