<svg width="25" height="20" viewBox="0 0 25 20" fill="none" xmlns="http://www.w3.org/2000/svg">
<path fill-rule="evenodd" clip-rule="evenodd" d="M9.8371 18.6442C9.86569 18.6664 9.88835 18.6932 9.90367 18.7228C9.91899 18.7525 9.92665 18.7844 9.92616 18.8165C9.92568 18.8487 9.91706 18.8804 9.90084 18.9098C9.88463 18.9391 9.86116 18.9654 9.83191 18.9871L8.67367 19.8649C8.55388 19.9549 8.3956 20.0033 8.23257 19.9998C8.06953 19.9962 7.91464 19.941 7.80091 19.846L2.77296 15.6104C2.5382 15.4126 2.53774 15.0934 2.77266 14.8966L7.8284 10.6614C8.06301 10.465 8.45617 10.4554 8.70514 10.639L9.87437 11.5012C9.99962 11.5935 10.0016 11.7437 9.87743 11.8376L6.65305 14.2798C6.65305 14.2798 14.7539 14.2958 17.6058 14.2877C20.4578 14.2798 22.7131 12.1792 22.7131 9.97701C22.7131 9.08082 21.8611 7.78561 21.8611 7.78561C21.785 7.66263 21.8194 7.482 21.9348 7.38448L23.2499 6.27388C23.3666 6.17524 23.5206 6.19536 23.5924 6.3191C23.5924 6.3191 24.9994 8.63608 24.9994 9.86731C24.9994 13.3501 21.675 16.1883 17.5864 16.1883C13.4977 16.1883 6.75386 16.2133 6.75386 16.2133L9.8371 18.6442Z" fill="white"/>
<path fill-rule="evenodd" clip-rule="evenodd" d="M15.1623 1.35575C15.1338 1.33352 15.1111 1.30675 15.0958 1.2771C15.0805 1.24745 15.0728 1.21555 15.0733 1.18339C15.0738 1.15123 15.0824 1.1195 15.0986 1.09016C15.1148 1.06083 15.1383 1.03452 15.1675 1.01288L16.3258 0.135077C16.4456 0.0450577 16.6038 -0.00334725 16.7669 0.000180095C16.9299 0.00370744 17.0848 0.0588881 17.1985 0.15396L22.2265 4.38953C22.4612 4.5873 22.4617 4.90657 22.2268 5.10335L17.171 9.33855C16.9364 9.53495 16.5433 9.54452 16.2943 9.36091L15.1249 8.49876C14.9998 8.40646 14.9978 8.25627 15.1219 8.16235L18.3464 5.72014C18.3464 5.72014 10.2456 5.70412 7.39361 5.71219C4.54162 5.72014 2.28639 7.82073 2.28639 10.0229C2.28639 10.9191 3.13838 12.2143 3.13838 12.2143C3.21444 12.3373 3.18008 12.5179 3.06461 12.6155L1.7495 13.7261C1.63281 13.8247 1.47884 13.8046 1.40705 13.6808C1.40705 13.6808 -1.68957e-07 11.364 -1.50649e-07 10.1326C-9.88686e-08 6.64987 3.32442 3.81162 7.413 3.81162C11.5017 3.81162 18.2456 3.78665 18.2456 3.78665L15.1623 1.35575Z" fill="white"/>
<path d="M12.5 7.99988L12.5 11.9999Z" fill="white"/>
<path d="M12.5 7.99988L12.5 11.9999" stroke="white" stroke-linecap="round" stroke-linejoin="round"/>
</svg>
