<svg width="25" height="20" viewBox="0 0 25 20" fill="none" xmlns="http://www.w3.org/2000/svg">
<path d="M22.5 5.68202C22.8989 5.68202 23.2542 5.83141 23.4831 6.06403L23.4835 6.06057C24.4405 7.18199 25 8.53746 25 9.9974C25 13.7798 21.2444 16.8609 16.5518 16.9876L16.251 16.9917L9.25625 16.9911L10.8859 18.2941L10.983 18.3813C11.3715 18.7735 11.3391 19.3449 10.8859 19.7073C10.4352 20.0675 9.72621 20.0953 9.23584 19.7904L9.11808 19.7073L5.36158 16.7042L5.26445 16.6171C4.90829 16.2575 4.90582 15.7474 5.25703 15.3857L5.36158 15.291L9.11808 12.2879L9.22711 12.2102C9.67687 11.9255 10.315 11.9235 10.7674 12.2043L10.8859 12.2879L10.983 12.3751C11.3391 12.7346 11.3416 13.2447 10.9904 13.6064L10.8859 13.7011L9.26875 14.9925L16.251 14.9931C19.7022 14.9931 22.5 12.7565 22.5 9.9974C22.5 8.97917 22.1189 8.03209 21.4646 7.24232C21.3296 7.08281 21.25 6.8895 21.25 6.68132C21.25 6.12942 21.8096 5.68202 22.5 5.68202ZM15.7814 0.215036L15.8904 0.292688L19.6469 3.29578C20.1002 3.65816 20.1326 4.2296 19.744 4.62185L19.6469 4.70901L15.8904 7.7121C15.4022 8.10235 14.6108 8.10235 14.1226 7.7121C13.6693 7.34973 13.637 6.77828 14.0255 6.38604L14.1226 6.29888L15.7438 5.00149L8.74902 5.00169C5.29778 5.00169 2.5 7.23835 2.5 9.9974C2.5 10.9153 2.80969 11.7755 3.3501 12.5146L3.51906 12.7327C3.66415 12.8952 3.75 13.0953 3.75 13.3114C3.75 13.8633 3.19036 14.3107 2.5 14.3107C2.0825 14.3107 1.7128 14.1471 1.48579 13.8957C0.547912 12.7845 0 11.4421 0 9.9974C0 6.21503 3.75556 3.13389 8.44824 3.00715L8.74902 3.0031L15.7463 3.00289L14.1226 1.70591C13.6693 1.34353 13.637 0.77209 14.0255 0.379847L14.1226 0.292688C14.5759 -0.0696876 15.2907 -0.0955715 15.7814 0.215036Z" fill="white"/>
</svg>
