<svg width="25" height="20" viewBox="0 0 25 20" fill="none" xmlns="http://www.w3.org/2000/svg">
<path d="M20.7498 0.055944C20.3774 -0.118196 19.9447 0.133415 19.9086 0.544945C19.8811 0.857912 19.8534 1.25244 19.8348 1.71403C16.7389 2.03866 13.9988 3.73434 12.5833 6.2656L11.9877 7.33081L11.392 6.2656C9.81257 3.44129 6.58416 1.65725 3.05259 1.65725H1.33196C0.596346 1.65725 0 2.19045 0 2.84819C0 3.50592 0.596346 4.03913 1.33196 4.03913H3.05259C5.57514 4.03913 7.88118 5.31345 9.0093 7.33081L10.4985 9.9938L9.0093 12.6569C7.88118 14.6742 5.57514 15.9485 3.05259 15.9485H1.33196C0.596346 15.9485 0 16.4818 0 17.1394C0 17.7972 0.596346 18.3304 1.33196 18.3304H3.05259C6.58416 18.3304 9.81257 16.5464 11.392 13.722L11.9877 12.6569L12.5833 13.722C13.9989 16.2534 16.7392 17.9492 19.835 18.2737C19.8553 18.7707 19.8861 19.1895 19.9156 19.5122C19.9508 19.8979 20.3457 20.1113 20.7125 19.9404C21.2027 19.7119 21.9189 19.3545 22.7766 18.8564C23.635 18.3579 24.3013 17.9124 24.7431 17.5995C25.0733 17.3657 25.0872 16.9157 24.7732 16.6921C24.3295 16.3763 23.6498 15.9191 22.7775 15.4125C21.9466 14.9299 21.2417 14.5773 20.7498 14.3473C20.3774 14.1732 19.9447 14.4247 19.9086 14.8363C19.8839 15.1181 19.8589 15.4661 19.8405 15.8695C17.7553 15.5629 15.9304 14.3813 14.9661 12.6569L13.4768 9.9938L14.9661 7.33081C15.9304 5.60626 17.7556 4.4247 19.8409 4.11804C19.861 4.55593 19.8889 4.92805 19.9156 5.22082C19.9508 5.60665 20.3457 5.82007 20.7125 5.6491C21.2027 5.42063 21.9189 5.06319 22.7766 4.56509C23.635 4.06656 24.3013 3.62104 24.7431 3.30823C25.0733 3.07442 25.0872 2.62439 24.7732 2.40084C24.3295 2.08494 23.6498 1.62774 22.7775 1.12117C21.9466 0.638612 21.2417 0.285927 20.7498 0.055944Z" fill="white"/>
</svg>
