<svg width="19" height="20" viewBox="0 0 19 20" fill="none" xmlns="http://www.w3.org/2000/svg">
<path d="M14.3597 12.4306V1.27626C14.3597 0.581063 13.861 0 13.1485 0C12.6497 0 12.3138 0.228264 11.7743 0.747081L7.601 4.77304C7.53994 4.83529 7.47888 4.87677 7.40761 4.89753L7.00046 4.92865L14.3597 12.4306ZM17.6576 19.7665C17.9732 20.0778 18.4719 20.0778 18.7671 19.7665C19.0725 19.4449 19.0827 18.9468 18.7671 18.6355L1.34105 0.871572C1.03569 0.5603 0.526744 0.5603 0.221392 0.871572C-0.0737974 1.17253 -0.0737974 1.70171 0.221392 2.00258L17.6576 19.7665ZM13.1688 19.0402C13.7693 19.0402 14.1867 18.677 14.319 18.0648L2.29788 5.83139C1.97216 6.22568 1.78893 6.79638 1.78893 7.5227V11.5487C1.78893 13.1051 2.5625 13.904 3.99771 13.904H7.02083C7.12259 13.904 7.21422 13.9352 7.27528 13.9974L11.7743 18.3658C12.2629 18.8327 12.67 19.0402 13.1688 19.0402Z" fill="white"/>
</svg>
