<svg width="24" height="20" viewBox="0 0 24 20" fill="none" xmlns="http://www.w3.org/2000/svg">
<path d="M11.1429 20C11.8206 20 12.309 19.455 12.309 18.7248V1.34057C12.309 0.610294 11.8206 0 11.123 0C10.6346 0 10.3057 0.239768 9.77743 0.784731L5.38209 5.32969C5.31231 5.39507 5.22261 5.42778 5.12293 5.42778H2.16279C0.757457 5.42778 0 6.26702 0 7.90191V12.1308C0 13.7656 0.757457 14.6049 2.16279 14.6049H5.12293C5.22261 14.6049 5.31231 14.6376 5.38209 14.703L9.77743 19.2915C10.2558 19.782 10.6545 20 11.1429 20ZM20.7808 17.7766C21.1695 18.0599 21.6479 17.951 21.927 17.515C23.2425 15.5095 24 12.8392 24 10.049C24 7.24793 23.2525 4.57763 21.927 2.57217C21.6379 2.14709 21.1695 2.03813 20.7808 2.32153C20.402 2.60488 20.3422 3.13892 20.6412 3.60759C21.7275 5.35149 22.3954 7.6403 22.3954 10.049C22.3954 12.4577 21.7475 14.7684 20.6312 16.4905C20.3522 16.9591 20.402 17.4932 20.7808 17.7766ZM16.804 14.8338C17.1429 15.0953 17.6313 15.0082 17.9203 14.5831C18.6978 13.4387 19.1662 11.7602 19.1662 10.049C19.1662 8.33786 18.6878 6.67026 17.9203 5.50408C17.6313 5.079 17.1529 4.99183 16.804 5.25339C16.3655 5.56946 16.3157 6.12534 16.6346 6.60488C17.2127 7.45504 17.5615 8.75202 17.5615 10.049C17.5615 11.346 17.1927 12.6431 16.6246 13.5041C16.3256 13.9727 16.3755 14.5068 16.804 14.8338Z" fill="white"/>
</svg>
