<svg width="29" height="20" viewBox="0 0 29 20" fill="none" xmlns="http://www.w3.org/2000/svg">
<path d="M24.9403 19.8637C25.311 20.1147 25.8023 20.0142 26.093 19.6026C27.9273 16.9719 29 13.5883 29 10.0037C29 6.41927 27.9175 3.02554 26.093 0.394867C25.8023 -0.0167774 25.311 -0.117199 24.9403 0.143866C24.5593 0.40493 24.4991 0.906934 24.7898 1.32864C26.4036 3.70831 27.4061 6.76063 27.4061 10.0037C27.4061 13.2469 26.4338 16.3394 24.7898 18.6788C24.4991 19.0905 24.5593 19.5925 24.9403 19.8637ZM11.207 19.1708C11.8887 19.1708 12.3799 18.6688 12.3799 17.9961V1.98128C12.3799 1.30857 11.8887 0.746291 11.187 0.746291C10.6958 0.746291 10.365 0.967207 9.83374 1.46921L5.41306 5.65615C5.34289 5.71642 5.25268 5.74651 5.15242 5.74651H2.17526C0.76182 5.74651 0 6.51964 0 8.02575V11.9215C0 13.4276 0.76182 14.2007 2.17526 14.2007H5.15242C5.25268 14.2007 5.34289 14.2308 5.41306 14.2911L9.83374 18.5182C10.3149 18.97 10.7159 19.1708 11.207 19.1708ZM20.9005 17.1226C21.2913 17.3836 21.7726 17.2832 22.0532 16.8816C23.3763 15.0341 24.1382 12.5741 24.1382 10.0037C24.1382 7.42333 23.3864 4.96337 22.0532 3.11589C21.7625 2.72432 21.2913 2.6239 20.9005 2.88497C20.5195 3.14603 20.4593 3.63802 20.7601 4.06974C21.8526 5.67623 22.5244 7.78476 22.5244 10.0037C22.5244 12.2227 21.8727 14.3514 20.75 15.9378C20.4693 16.3695 20.5195 16.8615 20.9005 17.1226ZM16.9008 14.4116C17.2416 14.6525 17.7328 14.5722 18.0234 14.1807C18.8054 13.1264 19.2766 11.5801 19.2766 10.0037C19.2766 8.42739 18.7954 6.89119 18.0234 5.81679C17.7328 5.42522 17.2516 5.34493 16.9008 5.58587C16.4597 5.87707 16.4096 6.38913 16.7304 6.83092C17.3118 7.61406 17.6626 8.80895 17.6626 10.0037C17.6626 11.1986 17.2917 12.3934 16.7204 13.1866C16.4196 13.6184 16.4698 14.1104 16.9008 14.4116Z" fill="white"/>
</svg>
