<svg width="19" height="20" viewBox="0 0 19 20" fill="none" xmlns="http://www.w3.org/2000/svg">
<path d="M11.0463 20C11.7181 20 12.2023 19.455 12.2023 18.7248V1.34059C12.2023 0.610354 11.7181 0 11.0265 0C10.5424 0 10.2163 0.239771 9.69265 0.784742L5.33538 5.32969C5.26625 5.39512 5.1773 5.42781 5.07848 5.42781H2.14403C0.750888 5.42781 0 6.267 0 7.90192V12.1308C0 13.7657 0.750888 14.6049 2.14403 14.6049H5.07848C5.1773 14.6049 5.26625 14.6376 5.33538 14.703L9.69265 19.2916C10.1669 19.782 10.5621 20 11.0463 20ZM16.6583 14.8338C16.9942 15.0954 17.4784 15.0082 17.7649 14.5831C18.5356 13.4387 19 11.7602 19 10.0491C19 8.33788 18.5257 6.67028 17.7649 5.50407C17.4784 5.07903 17.0041 4.99184 16.6583 5.25337C16.2236 5.56946 16.1741 6.12535 16.4903 6.6049C17.0634 7.45502 17.4092 8.75204 17.4092 10.0491C17.4092 11.346 17.0436 12.6431 16.4804 13.5041C16.184 13.9727 16.2335 14.5068 16.6583 14.8338Z" fill="white"/>
</svg>
