<svg width="50" height="50" viewBox="0 0 50 50" fill="none" xmlns="http://www.w3.org/2000/svg">
<path fill-rule="evenodd" clip-rule="evenodd" d="M45.3187 2.00631C42.6436 -0.668764 38.3064 -0.668773 35.6313 2.00631L3.30498 34.3327C2.34872 35.2889 1.6969 36.5068 1.43169 37.8328L0.0912199 44.5352C-0.547855 47.7305 2.2694 50.5479 5.46477 49.9088L12.1671 48.5682C13.4932 48.3032 14.7111 47.6513 15.6674 46.695L47.9936 14.3687C50.6688 11.6936 50.6688 7.35646 47.9936 4.68137L45.3187 2.00631ZM38.8603 5.2354C39.7522 4.34372 41.1978 4.34372 42.0897 5.2354L44.7646 7.91049C45.6564 8.80217 45.6564 10.2479 44.7646 11.1396L38.6644 17.2397L32.7605 11.3355L38.8603 5.2354ZM29.5311 14.5646L6.53408 37.5617C6.21532 37.8805 5.99807 38.2865 5.90965 38.7285L4.56918 45.4307L11.2715 44.0902C11.7135 44.0018 12.1195 43.7847 12.4383 43.4659L35.4354 20.4688L29.5311 14.5646Z" fill="white"/>
</svg>
